<?xml version="1.0" encoding="UTF-8"?>
<svg version="1.1" xmlns="http://www.w3.org/2000/svg" width="332" height="300">
<path d="M0 0 C109.56 0 219.12 0 332 0 C332 99 332 198 332 300 C222.44 300 112.88 300 0 300 C0 201 0 102 0 0 Z " fill="#14202B" transform="translate(0,0)"/>
<path d="M0 0 C0 0.66 0 1.32 0 2 C-0.66 2 -1.32 2 -2 2 C-2 2.66 -2 3.32 -2 4 C-4.16449077 6.29977144 -6.38594068 8.46218751 -8.76171875 10.54296875 C-14.24991074 15.58587133 -17.86567342 21.26881087 -21.4987793 27.71606445 C-22.703125 29.78125 -22.703125 29.78125 -25 33 C-29 33 -29 33 -32.25 31.1875 C-43.45185609 25.31488515 -59.65381854 24.09499282 -71.7734375 27.24609375 C-79.98401908 30.02616786 -85.58582499 33.32590844 -90.09765625 40.82421875 C-92.20087537 45.89561723 -91.86947039 52.11957575 -90.30078125 57.31640625 C-84.2566441 68.79801994 -67.97141936 72.55908389 -56.52539062 76.22412109 C-52.74839559 77.38453198 -48.94253766 78.41997592 -45.125 79.4375 C-22.96083183 85.36757156 -2.84308153 93.14354249 14 109 C14.68707031 109.63292969 15.37414062 110.26585937 16.08203125 110.91796875 C20.11816092 115.04520745 22.69919598 119.8419981 25.3125 124.9375 C25.65063721 125.59387451 25.98877441 126.25024902 26.3371582 126.92651367 C33.08512474 140.76266598 33.20151589 159.33190581 29.1015625 173.98828125 C25.38036657 184.16218926 20.28383349 192.9523188 13 201 C12.31164062 201.78117188 11.62328125 202.56234375 10.9140625 203.3671875 C-3.18088842 218.4798244 -25.72734392 225.33670024 -45.9453125 226.24609375 C-75.16936212 227.13355272 -102.34991559 217.92095953 -124 198 C-128.86397639 193.29781909 -132.59806012 187.8301629 -136.375 182.25 C-136.81658447 181.59950684 -137.25816895 180.94901367 -137.71313477 180.27880859 C-139.74204074 177.20865426 -141.25029995 174.59816723 -142 171 C-141.30519531 170.63390625 -140.61039063 170.2678125 -139.89453125 169.890625 C-134.41456824 166.97353442 -128.97855112 164.00250349 -123.6015625 160.8984375 C-122.20006958 160.08971191 -122.20006958 160.08971191 -120.77026367 159.26464844 C-118.89814997 158.1810394 -117.02846712 157.09321856 -115.16137695 156.00097656 C-114.292146 155.49791992 -113.42291504 154.99486328 -112.52734375 154.4765625 C-111.75124756 154.02361816 -110.97515137 153.57067383 -110.17553711 153.10400391 C-108.10575005 152.05366421 -106.26714424 151.4558143 -104 151 C-103.48050781 151.80824219 -102.96101563 152.61648437 -102.42578125 153.44921875 C-101.72839844 154.51785156 -101.03101563 155.58648437 -100.3125 156.6875 C-99.62800781 157.74324219 -98.94351563 158.79898438 -98.23828125 159.88671875 C-96.04390701 162.93892865 -93.72503717 165.42047453 -91 168 C-90.49597656 168.51304687 -89.99195313 169.02609375 -89.47265625 169.5546875 C-77.22921703 181.0180738 -62.06178465 183.6302353 -45.96875 183.31640625 C-36.1342357 182.8698924 -25.32257088 179.81388511 -18.4765625 172.3359375 C-13.04109485 165.20384989 -11.96620149 157.81507764 -13 149 C-15.3812056 140.47842665 -20.58063888 136.32258431 -28 132 C-29.093125 131.33484375 -30.18625 130.6696875 -31.3125 129.984375 C-35.1001948 127.83736679 -38.98777365 126.44624026 -43.125 125.125 C-43.89634277 124.87234375 -44.66768555 124.6196875 -45.46240234 124.359375 C-51.47445429 122.41822096 -57.54042941 120.69703822 -63.625 119 C-85.60612448 112.8276155 -112.66320155 104.02191045 -126 84 C-135.42175754 66.99440476 -139.16664075 50.61101608 -133.94921875 31.48046875 C-132.90933879 28.76308696 -131.5290639 26.47002629 -130 24 C-129.38125 22.39125 -129.38125 22.39125 -128.75 20.75 C-126.71267895 15.86891832 -123.40508408 11.99634345 -120 8 C-119.48695312 7.39027344 -118.97390625 6.78054687 -118.4453125 6.15234375 C-107.30011251 -6.01865823 -90.79722374 -11.9636505 -75 -15 C-74.10667969 -15.185625 -73.21335937 -15.37125 -72.29296875 -15.5625 C-46.19397626 -19.0299818 -22.46921777 -13.00444453 0 0 Z " fill="#FAFBFB" transform="translate(146,49)"/>
<path d="M0 0 C9.52425506 8.00816119 20.74472415 17.49996122 26 29 C25.75024414 30.98852539 25.75024414 30.98852539 25 33 C22.64822497 34.70548571 20.37582795 36.17274755 17.875 37.625 C16.41787447 38.49897822 14.96218008 39.37534623 13.5078125 40.25390625 C12.76176758 40.70266113 12.01572266 41.15141602 11.24707031 41.61376953 C7.02669774 44.2173414 2.94805137 47.03742661 -1.12548828 49.86376953 C-4.01374335 51.83161801 -6.49282475 53.50517577 -10 54 C-11.12837409 52.41906946 -12.25256518 50.83515284 -13.375 49.25 C-14.00148438 48.36828125 -14.62796875 47.4865625 -15.2734375 46.578125 C-17 44 -17 44 -17.9765625 41.796875 C-19.29822847 39.47639277 -20.59181709 39.08014086 -23 38 C-24.35313287 36.9415009 -25.68513803 35.85567938 -27 34.75 C-42.17912342 22.86422636 -59.31301439 20.67044293 -78 22 C-94.08859236 24.02017393 -108.79512638 33.4547913 -119.15625 45.625 C-128.01289436 57.03355884 -133.49208812 70.67483715 -135 85 C-138.81355874 84.35989912 -141.37161346 82.56337096 -144.5625 80.4375 C-152.2370053 75.49314084 -160.54421339 72.18139915 -169.00805664 68.83447266 C-171.05617632 67.9764664 -173.02525311 67.01432066 -175 66 C-174.32346328 47.0569718 -162.49723893 27.60230025 -150 14 C-149.55817383 13.5157959 -149.11634766 13.0315918 -148.66113281 12.53271484 C-111.39289227 -27.86066348 -43.59523596 -35.6478878 0 0 Z " fill="#FAFBFB" transform="translate(295,55)"/>
<path d="M0 0 C3.65591507 1.36091315 6.8765395 3.01389397 10.203125 5.046875 C11.18410156 5.645 12.16507813 6.243125 13.17578125 6.859375 C14.69751953 7.79523438 14.69751953 7.79523438 16.25 8.75 C17.24902344 9.3584375 18.24804688 9.966875 19.27734375 10.59375 C25.27719673 14.26424829 31.1833233 18.04553618 37 22 C28.42620986 44.34685339 5.91105335 59.53381348 -15 69 C-41.94006133 80.56899202 -72.96747268 79.72375258 -100 69 C-105.4512344 66.56439224 -110.73921427 63.81927746 -116 61 C-116 57.14306425 -114.80676043 56.18616548 -112.4375 53.1875 C-105.37748822 43.72833378 -100.67192762 33.1754319 -97 22 C-93.61971054 23.31121549 -90.3804988 24.78274669 -87.125 26.375 C-67.78729248 35.07567748 -49.87207235 35.26902808 -30.14990234 27.88085938 C-18.55433837 23.12991742 -7.56069747 13.70047336 -1 3 C-0.67 2.01 -0.34 1.02 0 0 Z " fill="#F9FAFB" transform="translate(285,198)"/>
<path d="M0 0 C1.29518642 3.37170813 2.08119109 6.37177312 2 10 C-0.13378922 13.54278591 -3.04763626 16.134772 -6 19 C-7.19862062 20.49577865 -8.36872719 22.0151581 -9.5 23.5625 C-9.9846875 24.22378906 -10.469375 24.88507813 -10.96875 25.56640625 C-11.3090625 26.03949219 -11.649375 26.51257813 -12 27 C-14.64107354 24.53258609 -15.79641403 22.42559084 -17 19 C-17.99 19 -18.98 19 -20 19 C-19.125 14.25 -19.125 14.25 -18 12 C-16.68 12 -15.36 12 -14 12 C-14 11.34 -14 10.68 -14 10 C-10.535 9.505 -10.535 9.505 -7 9 C-6.67 8.01 -6.34 7.02 -6 6 C-5.34 6 -4.68 6 -4 6 C-4.33 4.68 -4.66 3.36 -5 2 C-2 0 -2 0 0 0 Z " fill="#0C1A21" transform="translate(146,57)"/>
<path d="M0 0 C0.99 0 1.98 0 3 0 C3 0.66 3 1.32 3 2 C4.32 1.67 5.64 1.34 7 1 C7 1.66 7 2.32 7 3 C7.66 3 8.32 3 9 3 C9.6875 5.8125 9.6875 5.8125 10 9 C8.5625 10.875 8.5625 10.875 7 12 C7.33 9.69 7.66 7.38 8 5 C7.34 5.66 6.68 6.32 6 7 C5.01 7 4.02 7 3 7 C3.33 8.65 3.66 10.3 4 12 C3.01 12.495 3.01 12.495 2 13 C0.02696226 11.02696226 -0.77145934 9.45708131 -2 7 C-2.66 6.67 -3.32 6.34 -4 6 C-2.1875 3 -2.1875 3 0 0 Z " fill="#15252B" transform="translate(167,238)"/>
<path d="M0 0 C0.66 0.33 1.32 0.66 2 1 C1.505 1.433125 1.01 1.86625 0.5 2.3125 C-1.33218192 3.99740483 -1.33218192 3.99740483 -1 7 C-3.48387097 11.74193548 -3.48387097 11.74193548 -6 13 C-5.67 13.66 -5.34 14.32 -5 15 C-5.99 15 -6.98 15 -8 15 C-8.33 15.66 -8.66 16.32 -9 17 C-10.97888961 17.72693904 -12.97954558 18.39816251 -15 19 C-11.58647072 11.60401989 -5.84611401 5.56093772 0 0 Z " fill="#1E282F" transform="translate(185,90)"/>
<path d="M0 0 C1.32 0.33 2.64 0.66 4 1 C2.68 1.33 1.36 1.66 0 2 C0 1.34 0 0.68 0 0 Z M-1 1 C-1 2.32 -1 3.64 -1 5 C-3.10084209 6.00696568 -5.20579489 7.0053589 -7.3125 8 C-8.48425781 8.556875 -9.65601563 9.11375 -10.86328125 9.6875 C-14 11 -14 11 -17 11 C-16.67 10.01 -16.34 9.02 -16 8 C-15.34 8 -14.68 8 -14 8 C-13.7628125 7.38769531 -13.525625 6.77539062 -13.28125 6.14453125 C-11.68296187 3.46934776 -10.34477446 2.88359835 -7.5 1.6875 C-6.7059375 1.34074219 -5.911875 0.99398437 -5.09375 0.63671875 C-3 0 -3 0 -1 1 Z " fill="#10191D" transform="translate(56,34)"/>
<path d="M0 0 C4.21912747 0.4794463 6.79663178 1.16625119 10 4 C8.54955729 8.10958767 6.48889248 11.43258745 4 15 C3.01 14.34 2.02 13.68 1 13 C1.375 11.0625 1.375 11.0625 2 9 C2.66 8.67 3.32 8.34 4 8 C3.34 7.67 2.68 7.34 2 7 C2.04125 6.21625 2.0825 5.4325 2.125 4.625 C2.28728734 1.83883881 2.28728734 1.83883881 0 0 Z " fill="#F0F4F5" transform="translate(312,216)"/>
<path d="M0 0 C0.680625 0.825 1.36125 1.65 2.0625 2.5 C4.84478007 5.36068704 4.84478007 5.36068704 8.8125 5.3125 C9.864375 5.209375 10.91625 5.10625 12 5 C11.95875 5.928125 11.9175 6.85625 11.875 7.8125 C11.72863661 11.15809719 11.72863661 11.15809719 14 14 C8.95830125 14 5.67840928 10.21362833 2 7 C-0.5625 4.0625 -0.5625 4.0625 -2 2 C-1.34 2 -0.68 2 0 2 C0 1.34 0 0.68 0 0 Z " fill="#EEF1F1" transform="translate(20,240)"/>
<path d="M0 0 C1.86398438 0.01353516 1.86398438 0.01353516 3.765625 0.02734375 C6.80229004 0.05070271 9.83853853 0.08345717 12.875 0.125 C12.875 0.455 12.875 0.785 12.875 1.125 C4.295 1.455 -4.285 1.785 -13.125 2.125 C-13.455 3.775 -13.785 5.425 -14.125 7.125 C-16.435 6.795 -18.745 6.465 -21.125 6.125 C-21.125 5.465 -21.125 4.805 -21.125 4.125 C-22.115 3.465 -23.105 2.805 -24.125 2.125 C-16.04331075 0.05498603 -8.30925345 -0.11565342 0 0 Z " fill="#D1D8DA" transform="translate(228.125,32.875)"/>
<path d="M0 0 C2.47923801 -0.02685095 4.9581884 -0.04676547 7.4375 -0.0625 C8.14455078 -0.07087891 8.85160156 -0.07925781 9.58007812 -0.08789062 C11.38693559 -0.09653588 13.19387603 -0.05220011 15 0 C15.33 0.33 15.66 0.66 16 1 C17.66617115 1.04063832 19.33388095 1.042721 21 1 C19.39441516 2.92536938 18.52230522 3.91074167 16.00708008 4.34057617 C15.26868896 4.32486572 14.53029785 4.30915527 13.76953125 4.29296875 C12.96708984 4.28330078 12.16464844 4.27363281 11.33789062 4.26367188 C10.50451172 4.23853516 9.67113281 4.21339844 8.8125 4.1875 C7.96751953 4.17396484 7.12253906 4.16042969 6.25195312 4.14648438 C4.16769616 4.11115799 2.08376723 4.05735139 0 4 C0 2.68 0 1.36 0 0 Z " fill="#272F33" transform="translate(219,228)"/>
<path d="M0 0 C0.66 0.66 1.32 1.32 2 2 C1.48050781 2.49628906 0.96101563 2.99257813 0.42578125 3.50390625 C-3.92840543 7.74541527 -7.62819222 11.94228833 -11 17 C-11.33 16.34 -11.66 15.68 -12 15 C-12.66 14.67 -13.32 14.34 -14 14 C-13.34 12.02 -12.68 10.04 -12 8 C-11.34 8.33 -10.68 8.66 -10 9 C-6.54718834 7.84906278 -5.61917837 6.6794007 -3.3125 3.9375 C-2.68988281 3.20402344 -2.06726562 2.47054687 -1.42578125 1.71484375 C-0.95527344 1.14894531 -0.48476563 0.58304688 0 0 Z " fill="#10191C" transform="translate(30,50)"/>
<path d="M0 0 C0.99 -0.33 1.98 -0.66 3 -1 C1.87548273 1.9719385 0.77706209 4.33440687 -1 7 C-4.45925163 5.7508258 -7.14693203 4.32472205 -10 2 C-6.5698874 -1.4301126 -4.41212278 -0.88242456 0 0 Z " fill="#E1EBED" transform="translate(121,76)"/>
<path d="M0 0 C4.83628305 0.99043705 9.47618873 1.95698846 14 4 C13.67 4.99 13.34 5.98 13 7 C7.43109483 6.52013969 2.32932432 5.70084819 -3 4 C-2.01 2.68 -1.02 1.36 0 0 Z " fill="#131C20" transform="translate(52,267)"/>
<path d="M0 0 C2 2 2 2 2 4.375 C0.6042509 8.03884139 -1.67734418 9.09124027 -5 11 C-6.32 10.34 -7.64 9.68 -9 9 C-6.03 6.03 -3.06 3.06 0 0 Z " fill="#0E181F" transform="translate(309,239)"/>
<path d="M0 0 C0.66 0.99 1.32 1.98 2 3 C-1.3 6.63 -4.6 10.26 -8 14 C-9 11 -9 11 -7.375 7.5625 C-5.40405565 4.30975268 -3.14209311 2.1820091 0 0 Z " fill="#1F272A" transform="translate(280,202)"/>
<path d="M0 0 C2.97 0.99 5.94 1.98 9 3 C9 3.66 9 4.32 9 5 C4.46298506 6.45184478 0.81938524 7.23509196 -4 7 C-4.33 6.01 -4.66 5.02 -5 4 C-4.01 4 -3.02 4 -2 4 C-1.34 2.68 -0.68 1.36 0 0 Z " fill="#ECF1F2" transform="translate(115,266)"/>
<path d="M0 0 C0.66 1.32 1.32 2.64 2 4 C-0.88087546 6.40072955 -3.56404834 8.47291037 -7 10 C-6.67 10.66 -6.34 11.32 -6 12 C-6.99 12 -7.98 12 -9 12 C-9.33 12.66 -9.66 13.32 -10 14 C-11.32 13.34 -12.64 12.68 -14 12 C-11.55111122 9.97092073 -9.21584675 8.12108476 -6.4375 6.5625 C-3.61580881 4.75372359 -1.96440122 2.69195723 0 0 Z " fill="#E5EAEC" transform="translate(130,218)"/>
<path d="M0 0 C0.66 0 1.32 0 2 0 C2.33 0.99 2.66 1.98 3 3 C2.01 4.485 2.01 4.485 1 6 C1.66 6.33 2.32 6.66 3 7 C1.75 8.5625 1.75 8.5625 0 10 C-1.9375 9.75 -1.9375 9.75 -4 9 C-4.7425 8.814375 -5.485 8.62875 -6.25 8.4375 C-6.8275 8.293125 -7.405 8.14875 -8 8 C-7.67 6.68 -7.34 5.36 -7 4 C-5.02 4.495 -5.02 4.495 -3 5 C-2.54625 4.175 -2.0925 3.35 -1.625 2.5 C-1.08875 1.675 -0.5525 0.85 0 0 Z " fill="#0A181E" transform="translate(163,249)"/>
<path d="M0 0 C0.66 0.33 1.32 0.66 2 1 C1.73221294 4.19336065 1.30423839 7.0576382 0 10 C-2.6620448 11.76020921 -4.83938556 12.23533522 -8 13 C-7.24432948 9.21369298 -5.87402727 7.5958956 -3 5 C-2.67 5.33 -2.34 5.66 -2 6 C-2 4.68 -2 3.36 -2 2 C-1.34 2 -0.68 2 0 2 C0 1.34 0 0.68 0 0 Z " fill="#0B151B" transform="translate(184,224)"/>
<path d="M0 0 C1.32 0 2.64 0 4 0 C4.33 0.99 4.66 1.98 5 3 C-0.16216577 6.75430238 -3.56014376 8.67081836 -10 8 C-10 7.67 -10 7.34 -10 7 C-9.0925 6.773125 -8.185 6.54625 -7.25 6.3125 C-3.51462034 4.80398129 -2.44393723 3.09565383 0 0 Z " fill="#10191C" transform="translate(21,205)"/>
<path d="M0 0 C1.11375 0.7425 1.11375 0.7425 2.25 1.5 C5.06318188 3.31923475 5.06318188 3.31923475 9 3 C9.33 3.66 9.66 4.32 10 5 C10.99 5.33 11.98 5.66 13 6 C13 6.66 13 7.32 13 8 C11.02 8.99 11.02 8.99 9 10 C7.49410612 8.71520959 5.99542625 7.42195918 4.5 6.125 C3.6646875 5.40570313 2.829375 4.68640625 1.96875 3.9453125 C1.3190625 3.30335938 0.669375 2.66140625 0 2 C0 1.34 0 0.68 0 0 Z " fill="#131D21" transform="translate(53,214)"/>
<path d="M0 0 C2.9375 0.375 2.9375 0.375 6 1 C6.33 1.66 6.66 2.32 7 3 C8.64142963 4.0409066 10.30712215 5.04504326 12 6 C11.34 6.66 10.68 7.32 10 8 C6.31664774 7.90044994 5.00595516 7.00516114 2.1875 4.5625 C0 2 0 2 0 0 Z " fill="#10191D" transform="translate(298,56)"/>
<path d="M0 0 C0.66 2.97 1.32 5.94 2 9 C0.68 8.67 -0.64 8.34 -2 8 C-2.99 8.495 -2.99 8.495 -4 9 C-4.66 8.67 -5.32 8.34 -6 8 C-6 7.34 -6 6.68 -6 6 C-5.34 6 -4.68 6 -4 6 C-4.33 4.68 -4.66 3.36 -5 2 C-2 0 -2 0 0 0 Z " fill="#0A1B22" transform="translate(146,57)"/>
<path d="M0 0 C7.2770354 0.16106115 11.41573082 1.26551091 17 6 C15 7 15 7 11.77734375 6.07421875 C10.49453658 5.61997447 9.21466818 5.15736546 7.9375 4.6875 C7.28716797 4.46126953 6.63683594 4.23503906 5.96679688 4.00195312 C1.1272371 2.25447421 1.1272371 2.25447421 0 0 Z " fill="#202C2D" transform="translate(109,130)"/>
<path d="M0 0 C0.66 0.33 1.32 0.66 2 1 C1.505 1.433125 1.01 1.86625 0.5 2.3125 C-1.33218192 3.99740483 -1.33218192 3.99740483 -1 7 C-1.94726954 8.69719127 -2.94228261 10.36935236 -4 12 C-4.99 11.67 -5.98 11.34 -7 11 C-7 10.67 -7 10.34 -7 10 C-7.66 9.67 -8.32 9.34 -9 9 C-6.03 6.03 -3.06 3.06 0 0 Z " fill="#2E383E" transform="translate(185,90)"/>
<path d="M0 0 C0.33 0.99 0.66 1.98 1 3 C-3.455 5.97 -3.455 5.97 -8 9 C-8.66 8.34 -9.32 7.68 -10 7 C-9.09827532 5.82174642 -8.17798498 4.65768423 -7.25 3.5 C-6.73953125 2.8503125 -6.2290625 2.200625 -5.703125 1.53125 C-4 0 -4 0 0 0 Z " fill="#E7EDEE" transform="translate(309,91)"/>
<path d="M0 0 C1.5625 1.25 1.5625 1.25 3 3 C3.0625 5 3.0625 5 2 7 C-1.0625 8.75 -1.0625 8.75 -4 10 C-4.33 8.68 -4.66 7.36 -5 6 C-4.360625 5.7525 -3.72125 5.505 -3.0625 5.25 C-0.81258459 4.18437567 -0.81258459 4.18437567 -0.25 1.875 C-0.1675 1.25625 -0.085 0.6375 0 0 Z " fill="#E6ECED" transform="translate(318,81)"/>
<path d="M0 0 C4.92127034 -0.16682272 8.50343896 -0.24828052 13 2 C9.77208445 4.1519437 8.71599191 4.20086443 5 4 C5 3.34 5 2.68 5 2 C2.36 2.33 -0.28 2.66 -3 3 C-2.01 2.67 -1.02 2.34 0 2 C0 1.34 0 0.68 0 0 Z " fill="#0C161A" transform="translate(235,77)"/>
<path d="M0 0 C5.11365014 1.0681847 10.07227969 2.23107476 15 4 C15 4.66 15 5.32 15 6 C5.92307692 5.07692308 5.92307692 5.07692308 2 3 C1.34 2.01 0.68 1.02 0 0 Z " fill="#10171C" transform="translate(63,162)"/>
<path d="M0 0 C0 0.66 0 1.32 0 2 C2.64 2.33 5.28 2.66 8 3 C8 3.33 8 3.66 8 4 C5.87506859 4.02693575 3.75004088 4.04636628 1.625 4.0625 C0.44164063 4.07410156 -0.74171875 4.08570313 -1.9609375 4.09765625 C-5 4 -5 4 -7 3 C-7 2.34 -7 1.68 -7 1 C-4.53721199 -0.231394 -2.7204945 -0.07159196 0 0 Z " fill="#081014" transform="translate(86,228)"/>
<path d="M0 0 C0.99 0 1.98 0 3 0 C3.33 0.99 3.66 1.98 4 3 C3.34 3 2.68 3 2 3 C2.33 4.98 2.66 6.96 3 9 C2.01 8.67 1.02 8.34 0 8 C-0.33 8.66 -0.66 9.32 -1 10 C-1.66 10 -2.32 10 -3 10 C-2.01 6.7 -1.02 3.4 0 0 Z " fill="#1E2A2F" transform="translate(165,117)"/>
<path d="M0 0 C0.33 0.66 0.66 1.32 1 2 C-0.68474722 5.36949443 -1.8191658 6.87944386 -5 9 C-5.99 8.67 -6.98 8.34 -8 8 C-7.34 8 -6.68 8 -6 8 C-5.67 7.01 -5.34 6.02 -5 5 C-5.33 4.34 -5.66 3.68 -6 3 C-5.67 2.34 -5.34 1.68 -5 1 C-2.4375 0.375 -2.4375 0.375 0 0 Z " fill="#0C1518" transform="translate(271,211)"/>
<path d="M0 0 C3.94120709 0.56302958 6.7508723 1.6791945 10 4 C10 4.66 10 5.32 10 6 C9.319375 5.67 8.63875 5.34 7.9375 5 C4.49159762 3.82692685 1.61602578 3.85819507 -2 4 C-2 3.34 -2 2.68 -2 2 C-1.34 1.67 -0.68 1.34 0 1 C0 0.67 0 0.34 0 0 Z " fill="#0C1518" transform="translate(141,131)"/>
<path d="M0 0 C0.66 0.33 1.32 0.66 2 1 C1.21172254 2.29373782 0.41924884 3.58491951 -0.375 4.875 C-0.81585938 5.59429687 -1.25671875 6.31359375 -1.7109375 7.0546875 C-3 9 -3 9 -5 11 C-5 10.34 -5 9.68 -5 9 C-5.66 9 -6.32 9 -7 9 C-5.44499019 5.18315774 -2.96404505 2.80804268 0 0 Z " fill="#E7EDF0" transform="translate(171,104)"/>
<path d="M0 0 C1.40182371 2.61673759 2.60495559 5.0371669 3 8 C2.34 8.66 1.68 9.32 1 10 C0.34 10 -0.32 10 -1 10 C-2.15837626 5.94568308 -1.83691257 3.78187881 0 0 Z " fill="#0A151D" transform="translate(175,221)"/>
<path d="M0 0 C0.66 0.33 1.32 0.66 2 1 C1.34 3.31 0.68 5.62 0 8 C-1.32 8.33 -2.64 8.66 -4 9 C-4.33 8.34 -4.66 7.68 -5 7 C-4.34 6.67 -3.68 6.34 -3 6 C-2.835 5.175 -2.67 4.35 -2.5 3.5 C-2.335 2.675 -2.17 1.85 -2 1 C-1.34 0.67 -0.68 0.34 0 0 Z " fill="#0F1920" transform="translate(36,195)"/>
<path d="M0 0 C2.31 0.33 4.62 0.66 7 1 C7.33 1.99 7.66 2.98 8 4 C4.37 5.32 0.74 6.64 -3 8 C-3 7.34 -3 6.68 -3 6 C-1.34467377 4.98133771 0.32260138 3.98189187 2 3 C2.33 2.34 2.66 1.68 3 1 C2.01 0.67 1.02 0.34 0 0 Z " fill="#20282F" transform="translate(181,36)"/>
<path d="M0 0 C1.65 0.99 3.3 1.98 5 3 C3.625 4.5 3.625 4.5 2 6 C1.34 6 0.68 6 0 6 C-0.33 6.99 -0.66 7.98 -1 9 C-1.66 8.67 -2.32 8.34 -3 8 C-1.125 2.25 -1.125 2.25 0 0 Z " fill="#202B32" transform="translate(172,228)"/>
<path d="M0 0 C2.25 0.0625 2.25 0.0625 5 1 C7.89449287 5.06793592 9.61950509 7.88908299 9 13 C6.56968833 10.56968833 5.52542424 8.06519015 4.09765625 4.97265625 C2.96234186 2.93232256 1.72018907 1.56336271 0 0 Z " fill="#E0E4E5" transform="translate(125,185)"/>
<path d="M0 0 C0.66 0.99 1.32 1.98 2 3 C1.34 3.66 0.68 4.32 0 5 C-0.70710678 6.64991582 -1.37943989 8.31562256 -2 10 C-2.99 9.67 -3.98 9.34 -5 9 C-5 4.61031544 -2.87194899 3.23094261 0 0 Z " fill="#212A2E" transform="translate(162,245)"/>
<path d="M0 0 C0.66 0 1.32 0 2 0 C2.33 1.32 2.66 2.64 3 4 C0.03 6.475 0.03 6.475 -3 9 C-3.33 8.01 -3.66 7.02 -4 6 C-2.1875 2.8125 -2.1875 2.8125 0 0 Z " fill="#E2E7E8" transform="translate(21,63)"/>
<path d="M0 0 C4.33311515 0.41664569 8.03536259 1.19789209 12 3 C12 3.66 12 4.32 12 5 C10.58194169 4.71517632 9.16559621 4.42181856 7.75 4.125 C6.96109375 3.96257813 6.1721875 3.80015625 5.359375 3.6328125 C3.03168856 3.00849925 1.10968048 2.15161458 -1 1 C-0.67 0.67 -0.34 0.34 0 0 Z " fill="#2A3235" transform="translate(256,35)"/>
<path d="M0 0 C0.33 0.99 0.66 1.98 1 3 C-0.4375 5.1875 -0.4375 5.1875 -2 7 C-2.99 6.67 -3.98 6.34 -5 6 C-5 4.35 -5 2.7 -5 1 C-3.35 0.67 -1.7 0.34 0 0 Z " fill="#EEF2F4" transform="translate(168,234)"/>
<path d="M0 0 C0 2.66666667 0 5.33333333 0 8 C-0.99 8 -1.98 8 -3 8 C-3 7.34 -3 6.68 -3 6 C-4.65 6.33 -6.3 6.66 -8 7 C-5.4837822 4.39391727 -2.94865641 2.10618315 0 0 Z " fill="#DCE3E3" transform="translate(270,216)"/>
<path d="M0 0 C-0.6875 2.4375 -0.6875 2.4375 -2 5 C-4.625 5.8125 -4.625 5.8125 -7 6 C-7.33 5.01 -7.66 4.02 -8 3 C-5.22569089 1.15046059 -3.35957737 0 0 0 Z " fill="#111920" transform="translate(129,218)"/>
<path d="M0 0 C4.875 2.875 4.875 2.875 6 4 C6.04063832 5.66617115 6.042721 7.33388095 6 9 C4.125 8.4375 4.125 8.4375 2 7 C0.75 3.375 0.75 3.375 0 0 Z " fill="#0D1419" transform="translate(121,183)"/>
<path d="M0 0 C2.475 0.99 2.475 0.99 5 2 C4.625 4.4375 4.625 4.4375 4 7 C3.01 7.495 3.01 7.495 2 8 C1.67 7.34 1.34 6.68 1 6 C0.01 6.495 0.01 6.495 -1 7 C-1.33 5.68 -1.66 4.36 -2 3 C-1.34 3 -0.68 3 0 3 C0 2.01 0 1.02 0 0 Z " fill="#0B1A20" transform="translate(123,91)"/>
<path d="M0 0 C0.66 0.33 1.32 0.66 2 1 C0.33333333 2.66666667 -1.33333333 4.33333333 -3 6 C-3.53625 6.598125 -4.0725 7.19625 -4.625 7.8125 C-6 9 -6 9 -9 9 C-7.48328036 4.44984107 -3.83108947 2.49942736 0 0 Z " fill="#D9DEE0" transform="translate(169,48)"/>
<path d="M0 0 C3.53586014 3.17320782 5.58578031 5.16743695 6 10 C4.85073734 9.04578192 3.70569459 8.08647955 2.5625 7.125 C1.92441406 6.59132812 1.28632813 6.05765625 0.62890625 5.5078125 C-1 4 -1 4 -2 2 C-1.34 2 -0.68 2 0 2 C0 1.34 0 0.68 0 0 Z " fill="#CFD2D4" transform="translate(20,240)"/>
<path d="M0 0 C2.97 1.65 5.94 3.3 9 5 C7.68 5.33 6.36 5.66 5 6 C5 6.66 5 7.32 5 8 C4.34 8 3.68 8 3 8 C2.67 7.01 2.34 6.02 2 5 C1.34 4.67 0.68 4.34 0 4 C0 2.68 0 1.36 0 0 Z " fill="#232C32" transform="translate(151,135)"/>
<path d="M0 0 C-1.65 1.65 -3.3 3.3 -5 5 C-5.66 4.67 -6.32 4.34 -7 4 C-7.625 1.9375 -7.625 1.9375 -8 0 C-4.71023192 -1.09658936 -3.28696233 -0.79953138 0 0 Z " fill="#EAF1F0" transform="translate(83,123)"/>
<path d="M0 0 C0.8971875 0.5259375 0.8971875 0.5259375 1.8125 1.0625 C0.6875 2.625 0.6875 2.625 -1.1875 4.0625 C-4.375 3.75 -4.375 3.75 -7.1875 3.0625 C-4.99720701 -0.22293948 -3.86362761 -1.6558404 0 0 Z " fill="#EDF3F4" transform="translate(118.1875,75.9375)"/>
<path d="M0 0 C2.96175123 0.61277612 4.38058783 1.25372522 7 3 C7 3.66 7 4.32 7 5 C3.7 4.67 0.4 4.34 -3 4 C-2.01 2.68 -1.02 1.36 0 0 Z " fill="#111E1F" transform="translate(40,261)"/>
<path d="M0 0 C0.33 0.66 0.66 1.32 1 2 C1.66 2 2.32 2 3 2 C3 1.34 3 0.68 3 0 C3.66 0 4.32 0 5 0 C5.33 2.31 5.66 4.62 6 7 C4.125 6.6875 4.125 6.6875 2 6 C0 3 0 3 0 0 Z " fill="#0E181C" transform="translate(163,159)"/>
<path d="M0 0 C2.125 0.9375 2.125 0.9375 4 2 C2.35 3.65 0.7 5.3 -1 7 C-1.99 6.67 -2.98 6.34 -4 6 C-3.34 5.01 -2.68 4.02 -2 3 C-2 2.34 -2 1.68 -2 1 C-1.34 0.67 -0.68 0.34 0 0 Z " fill="#0B141A" transform="translate(169,43)"/>
<path d="M0 0 C0.99 0 1.98 0 3 0 C3.33 1.32 3.66 2.64 4 4 C3.01 3.67 2.02 3.34 1 3 C0.67 2.01 0.34 1.02 0 0 Z M-3 2 C-2.34 2 -1.68 2 -1 2 C-1 2.66 -1 3.32 -1 4 C-0.01 4 0.98 4 2 4 C2 4.66 2 5.32 2 6 C0.1875 6.6875 0.1875 6.6875 -2 7 C-3.75 5.5625 -3.75 5.5625 -5 4 C-4.34 3.34 -3.68 2.68 -3 2 Z " fill="#0A191D" transform="translate(124,127)"/>
<path d="M0 0 C0.33 0.99 0.66 1.98 1 3 C-2 4 -2 4 -5.1875 2.5625 C-6.115625 2.046875 -7.04375 1.53125 -8 1 C-8 0.67 -8 0.34 -8 0 C-4.71303767 -0.79953138 -3.28976808 -1.09658936 0 0 Z " fill="#E0E6E8" transform="translate(184,262)"/>
<path d="M0 0 C0.66 0.33 1.32 0.66 2 1 C2.33 2.32 2.66 3.64 3 5 C-1.455 4.01 -1.455 4.01 -6 3 C-3 1 -3 1 0 0 Z " fill="#DDE4E5" transform="translate(254,226)"/>
<path d="M0 0 C0.66 0.33 1.32 0.66 2 1 C0.25 8.75 0.25 8.75 -2 11 C-3.13643966 7.59068103 -2.86747764 6.99664544 -1.5625 3.8125 C-1.13130859 2.73935547 -1.13130859 2.73935547 -0.69140625 1.64453125 C-0.46324219 1.10183594 -0.23507813 0.55914062 0 0 Z " fill="#DEE4E5" transform="translate(125,101)"/>
<path d="M0 0 C0 3.57575896 -1.08840607 5.05295935 -3 8 C-3.66 7.34 -4.32 6.68 -5 6 C-4.875 4 -4.875 4 -4 2 C-1.9375 0.75 -1.9375 0.75 0 0 Z " fill="#0B1720" transform="translate(175,106)"/>
<path d="M0 0 C0.33 0.66 0.66 1.32 1 2 C1.66 2.33 2.32 2.66 3 3 C1.625 4.5 1.625 4.5 0 6 C-0.66 6 -1.32 6 -2 6 C-2 5.34 -2 4.68 -2 4 C-2.99 3.67 -3.98 3.34 -5 3 C-3.35 2.01 -1.7 1.02 0 0 Z " fill="#1E282F" transform="translate(315,90)"/>
<path d="M0 0 C2.1640625 -0.29296875 2.1640625 -0.29296875 4.625 -0.1875 C5.44226563 -0.16042969 6.25953125 -0.13335937 7.1015625 -0.10546875 C8.04128906 -0.05326172 8.04128906 -0.05326172 9 0 C9 0.33 9 0.66 9 1 C8.21625 1.12375 7.4325 1.2475 6.625 1.375 C3.85942178 1.79117993 3.85942178 1.79117993 2 4 C-0.125 3.625 -0.125 3.625 -2 3 C-1.34 2.01 -0.68 1.02 0 0 Z " fill="#10191E" transform="translate(213,77)"/>
<path d="M0 0 C0.86625 0.556875 0.86625 0.556875 1.75 1.125 C0 2.6875 0 2.6875 -2.25 4.125 C-4.5 3.8125 -4.5 3.8125 -6.25 3.125 C-6.25 2.465 -6.25 1.805 -6.25 1.125 C-2.80384615 -1.09038462 -2.80384615 -1.09038462 0 0 Z " fill="#E7ECED" transform="translate(70.25,74.875)"/>
<path d="M0 0 C2 0 4 0 6 0 C5.67 1.32 5.34 2.64 5 4 C4.34 4 3.68 4 3 4 C2.67 4.66 2.34 5.32 2 6 C1.34 6 0.68 6 0 6 C0 4.02 0 2.04 0 0 Z " fill="#10191E" transform="translate(12,67)"/>
<path d="M0 0 C5.75 0.75 5.75 0.75 8 3 C6.02 3.66 4.04 4.32 2 5 C0 1.125 0 1.125 0 0 Z " fill="#0D1618" transform="translate(187,268)"/>
<path d="M0 0 C1.98 0.99 3.96 1.98 6 3 C4.25 4.125 4.25 4.125 2 5 C-0.25 4.125 -0.25 4.125 -2 3 C-1.34 2.01 -0.68 1.02 0 0 Z " fill="#E6ECED" transform="translate(307,211)"/>
<path d="M0 0 C-0.75 1.9375 -0.75 1.9375 -2 4 C-4 4.875 -4 4.875 -6 5 C-6.66 4.34 -7.32 3.68 -8 3 C-2.25 0 -2.25 0 0 0 Z " fill="#0C191F" transform="translate(289,194)"/>
<path d="M0 0 C2.49361571 1.20381448 4.68143083 2.45428722 7 4 C6.01 5.485 6.01 5.485 5 7 C2.5 5.1875 2.5 5.1875 0 3 C0 2.01 0 1.02 0 0 Z " fill="#20282D" transform="translate(153,150)"/>
<path d="M0 0 C1.9375 0.8125 1.9375 0.8125 4 2 C4.33 2.99 4.66 3.98 5 5 C4.34 5.66 3.68 6.32 3 7 C1.66666667 5.66666667 0.33333333 4.33333333 -1 3 C-0.67 2.01 -0.34 1.02 0 0 Z " fill="#0F191D" transform="translate(270,92)"/>
<path d="M0 0 C0.66 0 1.32 0 2 0 C1.25 4.75 1.25 4.75 -1 7 C-1.66 7 -2.32 7 -3 7 C-2.38722388 4.03824877 -1.74627478 2.61941217 0 0 Z " fill="#E5EAEC" transform="translate(172,223)"/>
<path d="M0 0 C0.66 0.66 1.32 1.32 2 2 C0.6875 4 0.6875 4 -1 6 C-1.99 6 -2.98 6 -4 6 C-4.33 4.68 -4.66 3.36 -5 2 C-3.68 2.33 -2.36 2.66 -1 3 C-0.67 2.01 -0.34 1.02 0 0 Z " fill="#15262C" transform="translate(129,88)"/>
<path d="M0 0 C-1.98 0.99 -1.98 0.99 -4 2 C-4 2.66 -4 3.32 -4 4 C-5.65 3.67 -7.3 3.34 -9 3 C-6.38997624 -0.48003168 -4.1689578 -0.27793052 0 0 Z " fill="#09161D" transform="translate(209,80)"/>
<path d="M0 0 C1.5625 1.1875 1.5625 1.1875 3 3 C2.6875 5.6875 2.6875 5.6875 2 8 C1.34 8 0.68 8 0 8 C-1.125 5.6875 -1.125 5.6875 -2 3 C-1.34 2.01 -0.68 1.02 0 0 Z " fill="#16262B" transform="translate(125,74)"/>
<path d="M0 0 C1.32 0.66 2.64 1.32 4 2 C2.68 3.32 1.36 4.64 0 6 C-0.66 4.68 -1.32 3.36 -2 2 C-1.34 1.34 -0.68 0.68 0 0 Z " fill="#19262A" transform="translate(144,64)"/>
<path d="M0 0 C0.66 0.66 1.32 1.32 2 2 C0.68 4.31 -0.64 6.62 -2 9 C-2.66 7.68 -3.32 6.36 -4 5 C-2.68 3.35 -1.36 1.7 0 0 Z " fill="#E4EAEB" transform="translate(129,64)"/>
<path d="M0 0 C1.1446875 0.2475 1.1446875 0.2475 2.3125 0.5 C5.03596236 1.09145396 5.03596236 1.09145396 8 1 C7.01 2.485 7.01 2.485 6 4 C4.35 3.67 2.7 3.34 1 3 C0.67 2.01 0.34 1.02 0 0 Z " fill="#1B272F" transform="translate(33,260)"/>
<path d="M0 0 C2.91517292 1.07401108 4.77810176 1.77810176 7 4 C4.125 4.625 4.125 4.625 1 5 C0.34 4.34 -0.32 3.68 -1 3 C-0.67 2.01 -0.34 1.02 0 0 Z " fill="#20292D" transform="translate(37,149)"/>
<path d="M0 0 C2.4375 0.75 2.4375 0.75 5 2 C5.8125 4.125 5.8125 4.125 6 6 C4.35 6 2.7 6 1 6 C0.67 4.02 0.34 2.04 0 0 Z " fill="#EBEDED" transform="translate(129,138)"/>
<path d="M0 0 C0.6875 2.0625 0.6875 2.0625 1 4 C-1.97 3.505 -1.97 3.505 -5 3 C-5.33 2.01 -5.66 1.02 -6 0 C-3 -1 -3 -1 0 0 Z " fill="#0A1318" transform="translate(100,124)"/>
<path d="M0 0 C0.99 0.33 1.98 0.66 3 1 C2.34 2.65 1.68 4.3 1 6 C-0.32 5.67 -1.64 5.34 -3 5 C-2.67 3.68 -2.34 2.36 -2 1 C-2 1.66 -2 2.32 -2 3 C-1.34 3 -0.68 3 0 3 C0 2.01 0 1.02 0 0 Z " fill="#2B3437" transform="translate(14,70)"/>
<path d="M0 0 C1.32 0.66 2.64 1.32 4 2 C2.68 2.99 1.36 3.98 0 5 C-2 4 -2 4 -3 2 C-2.01 1.34 -1.02 0.68 0 0 Z " fill="#ECF3F4" transform="translate(274,260)"/>
<path d="M0 0 C0.66 0.99 1.32 1.98 2 3 C-0.75 6.875 -0.75 6.875 -3 8 C-2.25 2.25 -2.25 2.25 0 0 Z " fill="#1D232A" transform="translate(170,251)"/>
<path d="M0 0 C0.66 1.32 1.32 2.64 2 4 C1.01 4.99 0.02 5.98 -1 7 C-1.99 6.67 -2.98 6.34 -4 6 C-2.68 4.02 -1.36 2.04 0 0 Z " fill="#DDE3E5" transform="translate(177,245)"/>
<path d="M0 0 C0.66 0 1.32 0 2 0 C1.814375 0.61875 1.62875 1.2375 1.4375 1.875 C0.76313824 4.04160178 0.76313824 4.04160178 2 6 C0.35 6.33 -1.3 6.66 -3 7 C-2.01 4.69 -1.02 2.38 0 0 Z " fill="#0F1B20" transform="translate(251,221)"/>
<path d="M0 0 C2 3 2 3 1.75 5.0625 C1 7 1 7 -1 9 C-1.09765625 2.84765625 -1.09765625 2.84765625 -1 1 C-0.67 0.67 -0.34 0.34 0 0 Z " fill="#12181D" transform="translate(10,111)"/>
<path d="M0 0 C1.32 1.65 2.64 3.3 4 5 C3.34 5.66 2.68 6.32 2 7 C2 6.34 2 5.68 2 5 C1.34 5 0.68 5 0 5 C-0.33 5.66 -0.66 6.32 -1 7 C-0.67 4.69 -0.34 2.38 0 0 Z " fill="#222B30" transform="translate(275,95)"/>
<path d="M0 0 C3.125 0.375 3.125 0.375 6 1 C5.67 1.99 5.34 2.98 5 4 C2.69 3.34 0.38 2.68 -2 2 C-1.34 1.34 -0.68 0.68 0 0 Z " fill="#10191C" transform="translate(60,270)"/>
<path d="M0 0 C0.33 0.66 0.66 1.32 1 2 C3.02463255 2.65213292 3.02463255 2.65213292 5 3 C4.67 4.32 4.34 5.64 4 7 C3.67 6.01 3.34 5.02 3 4 C2.01 4 1.02 4 0 4 C-0.33 3.01 -0.66 2.02 -1 1 C-0.67 0.67 -0.34 0.34 0 0 Z " fill="#0A1419" transform="translate(166,257)"/>
<path d="M0 0 C1.2684375 0.12375 1.2684375 0.12375 2.5625 0.25 C3.2225 1.24 3.8825 2.23 4.5625 3.25 C1.6875 3.375 1.6875 3.375 -1.4375 3.25 C-2.0975 2.59 -2.7575 1.93 -3.4375 1.25 C-2.4375 0.25 -2.4375 0.25 0 0 Z " fill="#0F171C" transform="translate(29.4375,253.75)"/>
<path d="M0 0 C5.75 0.75 5.75 0.75 8 3 C6.35 3.66 4.7 4.32 3 5 C2.67 4.01 2.34 3.02 2 2 C1.34 1.34 0.68 0.68 0 0 Z " fill="#E7EDF0" transform="translate(312,216)"/>
<path d="M0 0 C6.875 3.75 6.875 3.75 8 6 C5.21788056 5.62403791 3.4120716 5.32681541 1.1875 3.5625 C0 2 0 2 0 0 Z " fill="#071014" transform="translate(53,214)"/>
<path d="M0 0 C2 2 2 2 3 5 C2.01 5.66 1.02 6.32 0 7 C-0.66 5.68 -1.32 4.36 -2 3 C-1.34 2.01 -0.68 1.02 0 0 Z " fill="#1D292F" transform="translate(152,55)"/>
<path d="M0 0 C0.99 0.66 1.98 1.32 3 2 C-1.75 5 -1.75 5 -4 5 C-4 4.01 -4 3.02 -4 2 C-2.68 1.34 -1.36 0.68 0 0 Z " fill="#101B22" transform="translate(166,45)"/>
<path d="M0 0 C1.32 0 2.64 0 4 0 C4 0.66 4 1.32 4 2 C5.32 2.33 6.64 2.66 8 3 C6 4 6 4 2.875 3.0625 C1.92625 2.711875 0.9775 2.36125 0 2 C0 1.34 0 0.68 0 0 Z " fill="#121C1F" transform="translate(124,35)"/>
</svg>
